PathFileType	4	(X/Y/Z)	s07c0201.trc
DataRate	CameraRate	NumFrames	NumMarkers	Units	OrigDataRate	OrigDataStartFrame	OrigNumFrames
200	200	4	48	mm	200	1000	2000
Frame#	Time	racr			lacr			c7			jug			rlel			rdr			llel			ldr			s2			lic			ric			lasi			rasi			rpsi			lpsi			rgt			lgt			rth1			rth2			rth3			rth4			rlfc			rmfc			rsh1			rsh2			rsh3			rsh4			rlmal			rcal			rtoe			rmt5			lth1			lth2			lth4			lth3			llfc			lmfc			lsh1			lsh2			lsh3			lsh4			llmal			lcal			ltoe			lmt5			SBIKE			LBIKE			RBIKE			
		X1	Y1	Z1	X2	Y2	Z2	X3	Y3	Z3	X4	Y4	Z4	X5	Y5	Z5	X6	Y6	Z6	X7	Y7	Z7	X8	Y8	Z8	X9	Y9	Z9	X10	Y10	Z10	X11	Y11	Z11	X12	Y12	Z12	X13	Y13	Z13	X14	Y14	Z14	X15	Y15	Z15	X16	Y16	Z16	X17	Y17	Z17	X18	Y18	Z18	X19	Y19	Z19	X20	Y20	Z20	X21	Y21	Z21	X22	Y22	Z22	X23	Y23	Z23	X24	Y24	Z24	X25	Y25	Z25	X26	Y26	Z26	X27	Y27	Z27	X28	Y28	Z28	X29	Y29	Z29	X30	Y30	Z30	X31	Y31	Z31	X32	Y32	Z32	X33	Y33	Z33	X34	Y34	Z34	X35	Y35	Z35	X36	Y36	Z36	X37	Y37	Z37	X38	Y38	Z38	X39	Y39	Z39	X40	Y40	Z40	X41	Y41	Z41	X42	Y42	Z42	X43	Y43	Z43	X44	Y44	Z44	X45	Y45	Z45	X46	Y46	Z46	X47	Y47	Z47	X48	Y48	Z48	
1000	5.0000	421.982446	1455.246393	-88.464941	442.629143	1453.368155	-371.850715	396.455394	1518.358136	-231.213847	351.766975	1370.772165	-241.075749	442.968668	1106.589179	16.152328	690.506463	954.772252	-70.376475	472.032567	1154.598631	-551.017008	673.371943	949.239893	-438.160404	-144.886242	1202.011604	-266.132191	0.413995	1274.903587	-416.039984	16.241979	1268.799640	-121.597589	39.989961	1198.417747	-395.845788	41.440751	1223.423797	-145.435614	-123.526371	1245.596001	-218.192335	-116.933400	1254.911913	-327.224461	-4.353648	1151.014693	-76.564724	-43.916155	1105.576621	-432.864446	134.840659	1102.778122	-82.655855	220.974690	1089.589002	-95.538972	290.847025	1040.789822	-93.054565	230.626867	1118.793737	-114.874687	400.595369	951.258172	-128.315243	388.397020	932.661411	-233.807836	311.551040	846.517457	-100.915871	270.491339	768.285806	-110.104053	198.109297	720.648167	-100.973656	284.406049	756.283947	-146.293716	103.069021	623.398994	-92.591768	29.538427	639.835907	-124.586939	208.929230	410.294593	-126.564763	133.573653	450.275734	-59.144593	5.761832	992.247071	-447.177423	63.356180	925.647066	-454.861705	96.479894	941.468786	-450.262345	81.141956	838.519646	-448.462470	161.324720	688.041560	-413.865448	157.114095	670.520647	-323.050521	142.223161	543.381099	-433.937313	160.957525	461.942093	-413.615742	135.297667	374.989460	-415.581586	164.908798	465.988856	-371.315157	122.990233	239.285828	-404.428354	59.230982	195.833031	-371.489661	349.573502	204.399284	-360.547159	273.749944	168.636480	-427.222765	-263.121749	974.647814	-238.900830	-82.986641	78.941693	-435.325479	-82.622722	79.477189	-37.874028	
1001	5.0050	418.586726	1457.856478	-85.213626	444.869646	1452.427749	-368.680375	396.408966	1518.916814	-229.236101	351.239069	1371.405631	-237.842358	442.922353	1108.159348	15.856632	690.684465	955.617667	-70.368660	473.149503	1154.870470	-551.323871	674.531890	949.693775	-438.304659	-144.003186	1201.980417	-269.098112	3.296636	1273.262001	-419.145228	15.328652	1270.581283	-123.747666	42.227097	1196.970592	-397.363559	41.247912	1224.764142	-147.599360	-123.336417	1246.239750	-221.487622	-115.474912	1254.184414	-330.865434	-4.277226	1154.102863	-78.163464	-42.440532	1104.428735	-434.301436	135.359186	1107.754168	-84.224378	221.479095	1096.320377	-97.025969	292.271921	1048.538205	-94.390817	230.619302	1125.309421	-116.532215	403.585399	959.618637	-129.227338	391.642338	940.751500	-234.920754	316.518822	854.179963	-101.016760	275.957924	775.690638	-110.337861	203.878318	727.721684	-101.025600	289.963107	763.770069	-146.779137	109.453332	628.680541	-92.048203	35.170954	643.560754	-124.263475	218.948887	417.354566	-127.634372	143.348552	456.031804	-59.355916	4.645955	990.861658	-448.820097	60.778351	923.088577	-456.838874	94.165638	938.178505	-452.109025	76.632900	835.543959	-450.533663	154.312232	683.936187	-414.235118	149.962364	666.626589	-323.174351	134.893800	539.560232	-434.151914	153.261560	458.135147	-413.799289	127.278731	371.196098	-415.746388	157.242242	462.117492	-371.492050	114.398957	235.626011	-404.470827	50.365392	192.890481	-371.717465	340.569452	198.621662	-360.367147	272.260660	157.164492	-421.046228	-263.148485	974.640356	-238.963214	-82.969299	78.938151	-435.338657	-82.619337	79.485661	-37.882078	
1002	5.0100	415.133556	1460.481850	-82.093920	447.028639	1451.106098	-365.365159	396.218084	1519.411003	-227.213070	350.555584	1371.988657	-234.525769	442.997074	1109.860667	15.553418	690.807143	956.434698	-70.471181	474.422723	1155.118049	-551.566519	675.610367	949.998436	-438.454085	-143.287180	1202.190685	-272.027414	6.030886	1271.669917	-422.023935	14.283858	1272.435222	-125.870195	44.333978	1195.676256	-398.858261	40.894175	1226.156444	-149.645166	-123.007150	1246.852068	-224.898825	-114.250240	1253.757913	-334.350147	-4.322133	1157.182419	-79.695878	-41.015565	1103.457796	-435.658331	135.432905	1113.142517	-85.638815	221.837574	1102.663048	-98.479576	293.430141	1056.057296	-95.706933	231.508346	1131.462461	-120.156324	406.677945	968.562198	-130.289611	394.149713	948.279868	-236.285882	321.374464	861.765739	-100.959576	281.287331	782.623392	-110.648252	209.674387	733.807446	-101.440761	295.203763	770.921276	-147.247810	115.657458	633.175971	-91.747770	41.280808	646.645537	-123.529049	229.415735	424.495579	-128.100118	153.374306	461.288424	-59.637480	3.910495	989.819547	-450.342642	58.663942	920.982867	-458.593766	92.404946	935.332965	-453.652223	72.863510	833.089882	-452.255791	147.999395	679.936821	-414.177693	143.263171	663.191675	-322.890798	127.957154	536.470941	-434.237207	145.731270	454.881344	-413.688041	119.268926	368.148692	-415.704751	149.837100	458.946899	-371.507361	105.517651	232.616516	-404.344264	41.084694	190.625137	-371.698421	331.392720	193.171247	-360.126103	254.888381	158.766526	-426.897613	-263.173238	974.608392	-238.955182	-82.969328	78.948477	-435.323040	-82.615871	79.480439	-37.875560	
1003	5.0150	412.078315	1462.439028	-79.155959	449.135529	1449.480691	-361.932247	396.058692	1519.666959	-225.160744	349.917657	1372.356118	-231.513885	442.996992	1111.714941	15.127828	690.850969	957.052947	-70.621697	475.702642	1155.264029	-551.910632	676.746257	950.255075	-438.565594	-142.736616	1202.524729	-274.700100	7.270188	1269.148252	-421.369214	13.171671	1274.336718	-127.826559	46.267511	1194.565878	-400.377633	40.346391	1227.516255	-151.460658	-122.790604	1247.616006	-228.211387	-113.271497	1253.560069	-337.637246	-4.716624	1160.291987	-81.156520	-39.738361	1102.659745	-436.999255	135.489590	1118.182730	-86.905748	221.873481	1108.886113	-99.991994	294.183222	1063.489430	-96.978496	231.027836	1137.641065	-122.442188	408.733948	976.847899	-131.237987	397.077256	956.115544	-237.076537	325.644883	868.272198	-101.584525	286.329692	789.201325	-111.107802	215.147369	739.695067	-101.705035	300.146526	777.593486	-147.831909	122.105973	636.777539	-91.649383	47.212149	648.952072	-122.750701	239.937632	430.429812	-128.861618	163.548961	465.930339	-59.921042	3.481777	989.056122	-451.620589	57.133722	919.263750	-459.939374	91.069651	933.045316	-454.874428	69.770372	831.060746	-453.640234	142.533037	677.376031	-414.250919	137.557185	660.123797	-322.604016	121.450748	533.963512	-434.009148	138.435375	452.297820	-413.415582	111.190825	365.796821	-415.637855	143.015764	456.411737	-371.079850	96.381092	230.332716	-404.139605	31.643477	188.979656	-371.561234	321.892552	188.424392	-359.908813	245.130521	154.900649	-426.593484	-263.209385	974.610706	-239.004712	-82.978726	78.952231	-435.310783	-82.617942	79.469320	-37.883456	
